<svg id="Layer_1" data-name="Layer 1" xmlns="http://www.w3.org/2000/svg" viewBox="0 0 110 56"><defs><style>.cls-1{fill:#418fde;}</style></defs><title>hubmark-full</title><polygon points="16 27 10 27 10 8 1 8 1 55 10 55 10 36 16 36 16 55 25 55 25 8 16 8 16 27"/><path d="M78.48,33.9A7.17,7.17,0,0,0,73,30.5a4.42,4.42,0,0,0,3.79-2.78,18.48,18.48,0,0,0,1.66-8.48,15.37,15.37,0,0,0-1.83-7.71C75.22,9.06,72.89,8,69,8H55V55H69c4.29,0,6.87-.61,8.85-3.32,1.57-2.18,2-5.95,2-9.54C79.88,39.2,79.53,35.79,78.48,33.9ZM64,15h4.55c1.61,0.31,2.05,1.48,2.05,4v4c0,2.62.38,4.55-1.85,5H64V15Zm7.1,29.5c0,2.39-.65,3.25-1.91,3.5H64V35h4.88c1.47,0.37,2.22,1.78,2.22,3.5v6Z"/><path d="M43,8V45a3,3,0,0,1-6,0V8H28V44a12,12,0,0,0,24,0V8H43Z"/><path class="cls-1" d="M110,13.77a0.6,0.6,0,0,1-.44.56l-2.89.44a8.92,8.92,0,0,1-.61,1.42c0.53,0.77,1.09,1.45,1.67,2.16a0.62,0.62,0,0,1,.16.39,0.52,0.52,0,0,1-.14.36c-0.37.5-2.48,2.8-3,2.8a0.79,0.79,0,0,1-.41-0.14l-2.16-1.69a9.34,9.34,0,0,1-1.42.59,20.5,20.5,0,0,1-.45,2.91,0.57,0.57,0,0,1-.56.44H96.27a0.56,0.56,0,0,1-.56-0.47l-0.44-2.87a9.2,9.2,0,0,1-1.41-.58l-2.2,1.67a0.59,0.59,0,0,1-.39.14,0.56,0.56,0,0,1-.39-0.17,19.42,19.42,0,0,1-2.58-2.63,0.6,0.6,0,0,1-.11-0.36,0.59,0.59,0,0,1,.12-0.36c0.53-.72,1.11-1.41,1.64-2.14a8.38,8.38,0,0,1-.64-1.55l-2.86-.42A0.57,0.57,0,0,1,86,13.7V10.23a0.61,0.61,0,0,1,.42-0.56l2.91-.44a8.27,8.27,0,0,1,.61-1.44C89.41,7,88.84,6.34,88.27,5.64a0.58,0.58,0,0,1-.16-0.37,0.6,0.6,0,0,1,.14-0.36c0.37-.52,2.48-2.8,3-2.8a0.7,0.7,0,0,1,.41.16l2.16,1.67a9.34,9.34,0,0,1,1.42-.59A20.5,20.5,0,0,1,95.7.44,0.57,0.57,0,0,1,96.27,0h3.47a0.56,0.56,0,0,1,.56.47l0.44,2.87a9.2,9.2,0,0,1,1.41.58l2.22-1.67a0.53,0.53,0,0,1,.37-0.14,0.62,0.62,0,0,1,.39.16,19.72,19.72,0,0,1,2.58,2.66,0.53,0.53,0,0,1,.11.34,0.59,0.59,0,0,1-.12.36c-0.53.72-1.11,1.41-1.64,2.14a8.68,8.68,0,0,1,.64,1.53l2.86,0.44a0.57,0.57,0,0,1,.45.56v3.47ZM98,8a4,4,0,1,0,4,4A4,4,0,0,0,98,8Z"/></svg>